<svg width="428" height="1347" viewBox="0 0 428 1347" fill="none" xmlns="http://www.w3.org/2000/svg">
<rect y="17" width="428" height="1330" rx="40" fill="#6ABCB7"/>
<rect y="17" width="428" height="1330" rx="40" fill="url(#paint0_radial_6_3)" fill-opacity="0.34"/>
<rect x="1" y="18" width="426" height="1328" rx="39" stroke="white" stroke-opacity="0.2" stroke-width="2"/>
<rect x="1" y="18" width="426" height="1328" rx="39" stroke="url(#paint1_radial_6_3)" stroke-opacity="0.53" stroke-width="2"/>
<path d="M194.983 14.9492H234.017V29.4831C234.017 40.262 225.279 49.0001 214.5 49.0001C203.721 49.0001 194.983 40.262 194.983 29.4831V14.9492Z" fill="black"/>
<rect x="201.004" width="26.9915" height="43.1864" rx="13.4958" fill="#92CECA"/>
<rect x="212.881" y="9.71777" width="3.23898" height="8.63729" rx="1.61949" fill="white"/>
<path d="M155.299 62.7H158.053C158.725 62.7 159.322 62.832 159.844 63.096C160.366 63.354 160.771 63.723 161.059 64.203C161.347 64.677 161.491 65.226 161.491 65.85C161.491 66.474 161.347 67.026 161.059 67.506C160.771 67.98 160.366 68.349 159.844 68.613C159.322 68.871 158.725 69 158.053 69H155.299V62.7ZM157.999 68.01C158.461 68.01 158.866 67.923 159.214 67.749C159.568 67.569 159.838 67.317 160.024 66.993C160.216 66.663 160.312 66.282 160.312 65.85C160.312 65.418 160.216 65.04 160.024 64.716C159.838 64.386 159.568 64.134 159.214 63.96C158.866 63.78 158.461 63.69 157.999 63.69H156.469V68.01H157.999ZM168.36 68.019V69H163.635V62.7H168.234V63.681H164.805V65.319H167.847V66.282H164.805V68.019H168.36ZM166.407 60.954H167.73L166.164 62.187H165.192L166.407 60.954ZM171.734 63.681V65.598H174.776V66.588H171.734V69H170.564V62.7H175.163V63.681H171.734ZM177.195 62.7H178.365V69H177.195V62.7ZM180.969 62.7H182.139V68.01H185.433V69H180.969V62.7ZM191.981 68.019V69H187.256V62.7H191.855V63.681H188.426V65.319H191.468V66.282H188.426V68.019H191.981ZM198.308 69L197.021 67.155C196.967 67.161 196.886 67.164 196.778 67.164H195.356V69H194.186V62.7H196.778C197.324 62.7 197.798 62.79 198.2 62.97C198.608 63.15 198.92 63.408 199.136 63.744C199.352 64.08 199.46 64.479 199.46 64.941C199.46 65.415 199.343 65.823 199.109 66.165C198.881 66.507 198.551 66.762 198.119 66.93L199.568 69H198.308ZM198.281 64.941C198.281 64.539 198.149 64.23 197.885 64.014C197.621 63.798 197.234 63.69 196.724 63.69H195.356V66.201H196.724C197.234 66.201 197.621 66.093 197.885 65.877C198.149 65.655 198.281 65.343 198.281 64.941ZM210.816 62.7L208.071 69H206.919L204.165 62.7H205.434L207.531 67.56L209.646 62.7H210.816ZM217.106 68.019V69H212.381V62.7H216.98V63.681H213.551V65.319H216.593V66.282H213.551V68.019H217.106ZM223.432 69L222.145 67.155C222.091 67.161 222.01 67.164 221.902 67.164H220.48V69H219.31V62.7H221.902C222.448 62.7 222.922 62.79 223.324 62.97C223.732 63.15 224.044 63.408 224.26 63.744C224.476 64.08 224.584 64.479 224.584 64.941C224.584 65.415 224.467 65.823 224.233 66.165C224.005 66.507 223.675 66.762 223.243 66.93L224.692 69H223.432ZM223.405 64.941C223.405 64.539 223.273 64.23 223.009 64.014C222.745 63.798 222.358 63.69 221.848 63.69H220.48V66.201H221.848C222.358 66.201 222.745 66.093 223.009 65.877C223.273 65.655 223.405 65.343 223.405 64.941ZM228.746 69.09C228.26 69.09 227.789 69.021 227.333 68.883C226.883 68.745 226.526 68.562 226.262 68.334L226.667 67.425C226.925 67.629 227.24 67.797 227.612 67.929C227.99 68.055 228.368 68.118 228.746 68.118C229.214 68.118 229.562 68.043 229.79 67.893C230.024 67.743 230.141 67.545 230.141 67.299C230.141 67.119 230.075 66.972 229.943 66.858C229.817 66.738 229.655 66.645 229.457 66.579C229.259 66.513 228.989 66.438 228.647 66.354C228.167 66.24 227.777 66.126 227.477 66.012C227.183 65.898 226.928 65.721 226.712 65.481C226.502 65.235 226.397 64.905 226.397 64.491C226.397 64.143 226.49 63.828 226.676 63.546C226.868 63.258 227.153 63.03 227.531 62.862C227.915 62.694 228.383 62.61 228.935 62.61C229.319 62.61 229.697 62.658 230.069 62.754C230.441 62.85 230.762 62.988 231.032 63.168L230.663 64.077C230.387 63.915 230.099 63.792 229.799 63.708C229.499 63.624 229.208 63.582 228.926 63.582C228.464 63.582 228.119 63.66 227.891 63.816C227.669 63.972 227.558 64.179 227.558 64.437C227.558 64.617 227.621 64.764 227.747 64.878C227.879 64.992 228.044 65.082 228.242 65.148C228.44 65.214 228.71 65.289 229.052 65.373C229.52 65.481 229.904 65.595 230.204 65.715C230.504 65.829 230.759 66.006 230.969 66.246C231.185 66.486 231.293 66.81 231.293 67.218C231.293 67.566 231.197 67.881 231.005 68.163C230.819 68.445 230.534 68.67 230.15 68.838C229.766 69.006 229.298 69.09 228.746 69.09ZM236.74 62.7H237.91V68.01H241.204V69H236.74V62.7ZM247.753 68.019V69H243.028V62.7H247.627V63.681H244.198V65.319H247.24V66.282H244.198V68.019H247.753ZM257.809 65.724C258.157 65.838 258.433 66.03 258.637 66.3C258.841 66.564 258.943 66.894 258.943 67.29C258.943 67.836 258.733 68.259 258.313 68.559C257.893 68.853 257.281 69 256.477 69H253.345V62.7H256.297C257.041 62.7 257.614 62.847 258.016 63.141C258.418 63.429 258.619 63.828 258.619 64.338C258.619 64.65 258.547 64.926 258.403 65.166C258.259 65.406 258.061 65.592 257.809 65.724ZM254.515 63.618V65.355H256.171C256.579 65.355 256.891 65.283 257.107 65.139C257.329 64.989 257.44 64.773 257.44 64.491C257.44 64.203 257.329 63.987 257.107 63.843C256.891 63.693 256.579 63.618 256.171 63.618H254.515ZM256.405 68.082C257.311 68.082 257.764 67.779 257.764 67.173C257.764 66.567 257.311 66.264 256.405 66.264H254.515V68.082H256.405ZM265.177 67.542H262.027L261.406 69H260.2L263.035 62.7H264.187L267.031 69H265.807L265.177 67.542ZM264.79 66.624L263.602 63.87L262.423 66.624H264.79ZM270.686 69.09C270.2 69.09 269.729 69.021 269.273 68.883C268.823 68.745 268.466 68.562 268.202 68.334L268.607 67.425C268.865 67.629 269.18 67.797 269.552 67.929C269.93 68.055 270.308 68.118 270.686 68.118C271.154 68.118 271.502 68.043 271.73 67.893C271.964 67.743 272.081 67.545 272.081 67.299C272.081 67.119 272.015 66.972 271.883 66.858C271.757 66.738 271.595 66.645 271.397 66.579C271.199 66.513 270.929 66.438 270.587 66.354C270.107 66.24 269.717 66.126 269.417 66.012C269.123 65.898 268.868 65.721 268.652 65.481C268.442 65.235 268.337 64.905 268.337 64.491C268.337 64.143 268.43 63.828 268.616 63.546C268.808 63.258 269.093 63.03 269.471 62.862C269.855 62.694 270.323 62.61 270.875 62.61C271.259 62.61 271.637 62.658 272.009 62.754C272.381 62.85 272.702 62.988 272.972 63.168L272.603 64.077C272.327 63.915 272.039 63.792 271.739 63.708C271.439 63.624 271.148 63.582 270.866 63.582C270.404 63.582 270.059 63.66 269.831 63.816C269.609 63.972 269.498 64.179 269.498 64.437C269.498 64.617 269.561 64.764 269.687 64.878C269.819 64.992 269.984 65.082 270.182 65.148C270.38 65.214 270.65 65.289 270.992 65.373C271.46 65.481 271.844 65.595 272.144 65.715C272.444 65.829 272.699 66.006 272.909 66.246C273.125 66.486 273.233 66.81 273.233 67.218C273.233 67.566 273.137 67.881 272.945 68.163C272.759 68.445 272.474 68.67 272.09 68.838C271.706 69.006 271.238 69.09 270.686 69.09Z" fill="white"/>
<defs>
<radialGradient id="paint0_radial_6_3" cx="0" cy="0" r="1" gradientUnits="userSpaceOnUse" gradientTransform="translate(288.271 30.7788) rotate(95.3) scale(804.048 237.952)">
<stop stop-color="white"/>
<stop offset="1" stop-color="white" stop-opacity="0"/>
</radialGradient>
<radialGradient id="paint1_radial_6_3" cx="0" cy="0" r="1" gradientUnits="userSpaceOnUse" gradientTransform="translate(223.182 17.0001) rotate(90.1313) scale(924.352 150.603)">
<stop stop-color="white"/>
<stop offset="1" stop-color="white" stop-opacity="0"/>
</radialGradient>
</defs>
</svg>
