<svg width="336" height="92" viewBox="0 0 336 92" fill="none" xmlns="http://www.w3.org/2000/svg">
<path d="M23.948 84.5273H313.062C313.062 88.5624 309.791 91.8335 305.755 91.8335H31.2541C27.2191 91.8335 23.948 88.5624 23.948 84.5273Z" fill="#4F9B97"/>
<path d="M23.948 84.5273H313.062C313.062 88.5624 309.791 91.8335 305.755 91.8335H31.2541C27.2191 91.8335 23.948 88.5624 23.948 84.5273Z" fill="url(#paint0_radial_1_50)" fill-opacity="0.25"/>
<rect y="0.833984" width="336" height="84" rx="10" fill="#6ABCB7"/>
<rect y="0.833984" width="336" height="84" rx="10" fill="url(#paint1_radial_1_50)" fill-opacity="0.34"/>
<rect x="1" y="1.83398" width="334" height="82" rx="9" stroke="white" stroke-opacity="0.2" stroke-width="2"/>
<rect x="1" y="1.83398" width="334" height="82" rx="9" stroke="url(#paint2_radial_1_50)" stroke-opacity="0.53" stroke-width="2"/>
<path d="M119.047 45.583V47H112.222V37.9H118.865V39.317H113.912V41.683H118.306V43.074H113.912V45.583H119.047ZM116.226 35.378H118.137L115.875 37.159H114.471L116.226 35.378ZM126.145 47.13C125.226 47.13 124.394 46.9307 123.649 46.532C122.912 46.1247 122.332 45.5657 121.907 44.855C121.491 44.1443 121.283 43.3427 121.283 42.45C121.283 41.5573 121.495 40.7557 121.92 40.045C122.345 39.3343 122.925 38.7797 123.662 38.381C124.407 37.9737 125.239 37.77 126.158 37.77C126.903 37.77 127.584 37.9 128.199 38.16C128.814 38.42 129.334 38.797 129.759 39.291L128.667 40.318C128.008 39.6073 127.198 39.252 126.236 39.252C125.612 39.252 125.053 39.3907 124.559 39.668C124.065 39.9367 123.679 40.3137 123.402 40.799C123.125 41.2843 122.986 41.8347 122.986 42.45C122.986 43.0653 123.125 43.6157 123.402 44.101C123.679 44.5863 124.065 44.9677 124.559 45.245C125.053 45.5137 125.612 45.648 126.236 45.648C127.198 45.648 128.008 45.2883 128.667 44.569L129.759 45.609C129.334 46.103 128.81 46.48 128.186 46.74C127.571 47 126.89 47.13 126.145 47.13ZM136.479 47.13C135.551 47.13 134.715 46.9307 133.97 46.532C133.224 46.1247 132.639 45.5657 132.215 44.855C131.79 44.1357 131.578 43.334 131.578 42.45C131.578 41.566 131.79 40.7687 132.215 40.058C132.639 39.3387 133.224 38.7797 133.97 38.381C134.715 37.9737 135.551 37.77 136.479 37.77C137.406 37.77 138.242 37.9737 138.988 38.381C139.733 38.7797 140.318 39.3343 140.743 40.045C141.167 40.7557 141.38 41.5573 141.38 42.45C141.38 43.3427 141.167 44.1443 140.743 44.855C140.318 45.5657 139.733 46.1247 138.988 46.532C138.242 46.9307 137.406 47.13 136.479 47.13ZM136.479 45.648C137.085 45.648 137.631 45.5137 138.117 45.245C138.602 44.9677 138.983 44.5863 139.261 44.101C139.538 43.607 139.677 43.0567 139.677 42.45C139.677 41.8433 139.538 41.2973 139.261 40.812C138.983 40.318 138.602 39.9367 138.117 39.668C137.631 39.3907 137.085 39.252 136.479 39.252C135.872 39.252 135.326 39.3907 134.841 39.668C134.355 39.9367 133.974 40.318 133.697 40.812C133.419 41.2973 133.281 41.8433 133.281 42.45C133.281 43.0567 133.419 43.607 133.697 44.101C133.974 44.5863 134.355 44.9677 134.841 45.245C135.326 45.5137 135.872 45.648 136.479 45.648ZM152.297 37.9V47H150.906L145.888 40.838V47H144.211V37.9H145.602L150.62 44.062V37.9H152.297ZM160.027 47.13C159.099 47.13 158.263 46.9307 157.518 46.532C156.772 46.1247 156.187 45.5657 155.763 44.855C155.338 44.1357 155.126 43.334 155.126 42.45C155.126 41.566 155.338 40.7687 155.763 40.058C156.187 39.3387 156.772 38.7797 157.518 38.381C158.263 37.9737 159.099 37.77 160.027 37.77C160.954 37.77 161.79 37.9737 162.536 38.381C163.281 38.7797 163.866 39.3343 164.291 40.045C164.715 40.7557 164.928 41.5573 164.928 42.45C164.928 43.3427 164.715 44.1443 164.291 44.855C163.866 45.5657 163.281 46.1247 162.536 46.532C161.79 46.9307 160.954 47.13 160.027 47.13ZM160.027 45.648C160.633 45.648 161.179 45.5137 161.665 45.245C162.15 44.9677 162.531 44.5863 162.809 44.101C163.086 43.607 163.225 43.0567 163.225 42.45C163.225 41.8433 163.086 41.2973 162.809 40.812C162.531 40.318 162.15 39.9367 161.665 39.668C161.179 39.3907 160.633 39.252 160.027 39.252C159.42 39.252 158.874 39.3907 158.389 39.668C157.903 39.9367 157.522 40.318 157.245 40.812C156.967 41.2973 156.829 41.8433 156.829 42.45C156.829 43.0567 156.967 43.607 157.245 44.101C157.522 44.5863 157.903 44.9677 158.389 45.245C158.874 45.5137 159.42 45.648 160.027 45.648ZM176.118 47L176.105 40.968L173.115 45.96H172.361L169.371 41.046V47H167.759V37.9H169.15L172.764 43.932L176.313 37.9H177.704L177.717 47H176.118ZM181.215 37.9H182.905V47H181.215V37.9ZM189.227 47.13C188.525 47.13 187.845 47.0303 187.186 46.831C186.536 46.6317 186.021 46.3673 185.639 46.038L186.224 44.725C186.597 45.0197 187.052 45.2623 187.589 45.453C188.135 45.635 188.681 45.726 189.227 45.726C189.903 45.726 190.406 45.6177 190.735 45.401C191.073 45.1843 191.242 44.8983 191.242 44.543C191.242 44.283 191.147 44.0707 190.956 43.906C190.774 43.7327 190.54 43.5983 190.254 43.503C189.968 43.4077 189.578 43.2993 189.084 43.178C188.391 43.0133 187.828 42.8487 187.394 42.684C186.97 42.5193 186.601 42.2637 186.289 41.917C185.986 41.5617 185.834 41.085 185.834 40.487C185.834 39.9843 185.969 39.5293 186.237 39.122C186.515 38.706 186.926 38.3767 187.472 38.134C188.027 37.8913 188.703 37.77 189.5 37.77C190.055 37.77 190.601 37.8393 191.138 37.978C191.676 38.1167 192.139 38.316 192.529 38.576L191.996 39.889C191.598 39.655 191.182 39.4773 190.748 39.356C190.315 39.2347 189.895 39.174 189.487 39.174C188.82 39.174 188.322 39.2867 187.992 39.512C187.672 39.7373 187.511 40.0363 187.511 40.409C187.511 40.669 187.602 40.8813 187.784 41.046C187.975 41.2107 188.213 41.3407 188.499 41.436C188.785 41.5313 189.175 41.6397 189.669 41.761C190.345 41.917 190.9 42.0817 191.333 42.255C191.767 42.4197 192.135 42.6753 192.438 43.022C192.75 43.3687 192.906 43.8367 192.906 44.426C192.906 44.9287 192.768 45.3837 192.49 45.791C192.222 46.1983 191.81 46.5233 191.255 46.766C190.701 47.0087 190.025 47.13 189.227 47.13ZM202.447 45.583V47H195.622V37.9H202.265V39.317H197.312V41.683H201.706V43.074H197.312V45.583H202.447ZM212.443 45.57V47H204.682V45.869L210.038 39.33H204.773V37.9H212.274V39.031L206.918 45.57H212.443ZM222.082 37.77C223.33 37.77 224.296 38.16 224.981 38.94C225.674 39.72 226.021 40.838 226.021 42.294C226.021 43.3167 225.835 44.192 225.462 44.92C225.089 45.6393 224.565 46.1897 223.889 46.571C223.222 46.9437 222.446 47.13 221.562 47.13C221.094 47.13 220.652 47.0823 220.236 46.987C219.829 46.883 219.473 46.7357 219.17 46.545L219.794 45.271C220.245 45.5657 220.821 45.713 221.523 45.713C222.398 45.713 223.083 45.4443 223.577 44.907C224.071 44.3697 224.318 43.594 224.318 42.58V42.567C224.049 42.879 223.707 43.1173 223.291 43.282C222.875 43.438 222.407 43.516 221.887 43.516C221.289 43.516 220.752 43.4033 220.275 43.178C219.798 42.944 219.426 42.6147 219.157 42.19C218.888 41.7653 218.754 41.2757 218.754 40.721C218.754 40.1317 218.901 39.616 219.196 39.174C219.491 38.7233 219.889 38.3767 220.392 38.134C220.895 37.8913 221.458 37.77 222.082 37.77ZM222.212 42.19C222.758 42.19 223.2 42.0427 223.538 41.748C223.885 41.4533 224.058 41.0807 224.058 40.63C224.058 40.188 223.889 39.824 223.551 39.538C223.222 39.2433 222.762 39.096 222.173 39.096C221.644 39.096 221.215 39.239 220.886 39.525C220.557 39.8023 220.392 40.175 220.392 40.643C220.392 41.1197 220.557 41.4967 220.886 41.774C221.215 42.0513 221.657 42.19 222.212 42.19ZM232 47.13C231.272 47.13 230.622 46.948 230.05 46.584C229.478 46.2113 229.028 45.674 228.698 44.972C228.369 44.2613 228.204 43.4207 228.204 42.45C228.204 41.4793 228.369 40.643 228.698 39.941C229.028 39.2303 229.478 38.693 230.05 38.329C230.622 37.9563 231.272 37.77 232 37.77C232.728 37.77 233.378 37.9563 233.95 38.329C234.531 38.693 234.986 39.2303 235.315 39.941C235.645 40.643 235.809 41.4793 235.809 42.45C235.809 43.4207 235.645 44.2613 235.315 44.972C234.986 45.674 234.531 46.2113 233.95 46.584C233.378 46.948 232.728 47.13 232 47.13ZM232 45.661C232.65 45.661 233.162 45.3923 233.534 44.855C233.916 44.3177 234.106 43.516 234.106 42.45C234.106 41.384 233.916 40.5823 233.534 40.045C233.162 39.5077 232.65 39.239 232 39.239C231.359 39.239 230.848 39.5077 230.466 40.045C230.094 40.5823 229.907 41.384 229.907 42.45C229.907 43.516 230.094 44.3177 230.466 44.855C230.848 45.3923 231.359 45.661 232 45.661ZM240.019 42.801C239.369 42.801 238.845 42.5713 238.446 42.112C238.048 41.6527 237.848 41.0503 237.848 40.305C237.848 39.5597 238.048 38.9573 238.446 38.498C238.845 38.0387 239.369 37.809 240.019 37.809C240.669 37.809 241.194 38.0387 241.592 38.498C242 38.9487 242.203 39.551 242.203 40.305C242.203 41.059 242 41.6657 241.592 42.125C241.194 42.5757 240.669 42.801 240.019 42.801ZM245.479 37.9H246.753L240.539 47H239.265L245.479 37.9ZM240.019 41.891C240.375 41.891 240.648 41.7523 240.838 41.475C241.038 41.1977 241.137 40.8077 241.137 40.305C241.137 39.8023 241.038 39.4123 240.838 39.135C240.648 38.8577 240.375 38.719 240.019 38.719C239.681 38.719 239.408 38.862 239.2 39.148C239.001 39.4253 238.901 39.811 238.901 40.305C238.901 40.799 239.001 41.189 239.2 41.475C239.408 41.7523 239.681 41.891 240.019 41.891ZM245.986 47.091C245.336 47.091 244.812 46.8613 244.413 46.402C244.015 45.9427 243.815 45.3403 243.815 44.595C243.815 43.8497 244.015 43.2473 244.413 42.788C244.812 42.3287 245.336 42.099 245.986 42.099C246.636 42.099 247.161 42.3287 247.559 42.788C247.967 43.2473 248.17 43.8497 248.17 44.595C248.17 45.3403 247.967 45.9427 247.559 46.402C247.161 46.8613 246.636 47.091 245.986 47.091ZM245.986 46.181C246.333 46.181 246.606 46.0423 246.805 45.765C247.005 45.479 247.104 45.089 247.104 44.595C247.104 44.101 247.005 43.7153 246.805 43.438C246.606 43.152 246.333 43.009 245.986 43.009C245.64 43.009 245.367 43.1477 245.167 43.425C244.968 43.7023 244.868 44.0923 244.868 44.595C244.868 45.0977 244.968 45.4877 245.167 45.765C245.367 46.0423 245.64 46.181 245.986 46.181ZM250.502 37.9H252.426L252.101 43.984H250.814L250.502 37.9ZM251.464 47.091C251.161 47.091 250.909 46.9957 250.71 46.805C250.511 46.6057 250.411 46.363 250.411 46.077C250.411 45.791 250.511 45.5527 250.71 45.362C250.909 45.1713 251.161 45.076 251.464 45.076C251.759 45.076 252.001 45.1713 252.192 45.362C252.391 45.5527 252.491 45.791 252.491 46.077C252.491 46.363 252.391 46.6057 252.192 46.805C252.001 46.9957 251.759 47.091 251.464 47.091Z" fill="white"/>
<path d="M87.4838 50.6629C91.617 50.6629 94.9676 47.3123 94.9676 43.1791C94.9676 39.0459 91.617 35.6953 87.4838 35.6953C83.3506 35.6953 80 39.0459 80 43.1791C80 47.3123 83.3506 50.6629 87.4838 50.6629Z" stroke="white" stroke-width="2" stroke-linecap="round" stroke-linejoin="round"/>
<path d="M87.4838 40.1846V43.1781" stroke="white" stroke-width="2" stroke-linecap="round" stroke-linejoin="round"/>
<path d="M87.4838 46.1719H87.4919" stroke="white" stroke-width="2" stroke-linecap="round" stroke-linejoin="round"/>
<defs>
<radialGradient id="paint0_radial_1_50" cx="0" cy="0" r="1" gradientUnits="userSpaceOnUse" gradientTransform="translate(175.101 80.8743) rotate(90) scale(38.0962 151.153)">
<stop stop-color="white"/>
<stop offset="1" stop-color="white" stop-opacity="0"/>
</radialGradient>
<radialGradient id="paint1_radial_1_50" cx="0" cy="0" r="1" gradientUnits="userSpaceOnUse" gradientTransform="translate(178.469 18.474) rotate(95.257) scale(108.818 180.585)">
<stop stop-color="white"/>
<stop offset="1" stop-color="white" stop-opacity="0"/>
</radialGradient>
<radialGradient id="paint2_radial_1_50" cx="0" cy="0" r="1" gradientUnits="userSpaceOnUse" gradientTransform="translate(175.208 0.833991) rotate(91.632) scale(58.4037 118.183)">
<stop stop-color="white"/>
<stop offset="1" stop-color="white" stop-opacity="0"/>
</radialGradient>
</defs>
</svg>
