<svg width="94" height="94" viewBox="0 0 94 94" fill="none" xmlns="http://www.w3.org/2000/svg">
<path d="M76.6339 48.9761C76.2466 53.8234 75.1112 58.496 73.2226 62.9696C72.9128 63.6982 72.1728 64.2574 71.5932 64.8569C71.3341 65.1231 70.9841 65.3005 70.6609 65.5021C69.9316 65.9511 69.6805 66.5722 69.9557 67.3895C70.2415 68.2471 70.0385 68.9703 69.5149 69.6989C64.6291 76.4738 58.0978 80.4877 49.8515 81.6384C48.6014 81.8158 47.3352 81.8696 46.4697 81.9449C39.5724 81.8373 33.5647 80.2027 28.2782 76.2722C25.7351 74.3795 23.6515 72.0432 21.8217 69.4623C21.4077 68.8762 21.4157 68.2578 21.592 67.6099C21.8912 66.4942 21.6935 65.9699 20.6917 65.4726C19.0676 64.6606 18.1861 63.2707 17.6011 61.6173C13.6609 50.4493 13.7224 39.3325 17.967 28.2613C18.4933 26.8983 19.3267 25.8309 20.625 25.1212C21.7416 24.5082 21.8885 24.1076 21.5786 22.879C21.437 22.301 21.4958 21.7901 21.8511 21.2928C25.7912 15.8647 30.7625 11.867 37.2805 10.0065C41.6507 8.75371 46.0717 8.64617 50.5381 9.35324C55.138 10.0764 59.348 11.7433 63.0985 14.5366C65.3797 16.2384 67.3485 18.2602 69.1062 20.497C69.7286 21.2928 69.985 22.188 69.7954 23.1989C69.6592 23.9087 69.8301 24.5673 70.4739 24.8738C72.472 25.8202 73.3028 27.5838 73.9786 29.533C76.1744 35.8375 77.1735 42.3006 76.6339 48.9761Z" stroke="white" stroke-width="1.3346" stroke-miterlimit="10"/>
<path d="M37.1799 46.3017V24.2509H44.8398C46.3661 24.2509 47.6249 24.5165 48.6162 25.0477C49.6076 25.5717 50.3458 26.2787 50.8308 27.1688C51.3157 28.0517 51.5582 29.0315 51.5582 30.1082C51.5582 31.0557 51.3906 31.8381 51.0554 32.4554C50.7273 33.0727 50.2923 33.5608 49.7503 33.9197C49.2153 34.2786 48.6341 34.5442 48.0065 34.7164V34.9318C48.6769 34.9748 49.3509 35.2117 50.0284 35.6424C50.706 36.0731 51.273 36.6904 51.7294 37.4943C52.1859 38.2982 52.4141 39.2816 52.4141 40.4445C52.4141 41.5499 52.1645 42.544 51.6652 43.4269C51.166 44.3098 50.3779 45.0097 49.3009 45.5265C48.224 46.0433 46.8225 46.3017 45.0966 46.3017H37.1799ZM39.8331 43.933H45.0966C46.8297 43.933 48.0599 43.5956 48.7874 42.9209C49.522 42.239 49.8893 41.4135 49.8893 40.4445C49.8893 39.698 49.7003 39.0089 49.3223 38.3772C48.9443 37.7384 48.4059 37.2287 47.7069 36.8483C47.008 36.4607 46.1806 36.2669 45.2249 36.2669H39.8331V43.933ZM39.8331 33.9412H44.7542C45.553 33.9412 46.2734 33.7833 46.9152 33.4675C47.5643 33.1516 48.0778 32.7066 48.4558 32.1324C48.8409 31.5581 49.0335 30.8834 49.0335 30.1082C49.0335 29.1391 48.6983 28.3172 48.0278 27.6425C47.3574 26.9606 46.2948 26.6197 44.8398 26.6197H39.8331V33.9412Z" fill="white"/>
<path d="M56.7586 42.8512C56.6534 41.9571 56.2268 41.2631 55.4787 40.769C54.7307 40.2749 53.8131 40.0279 52.7261 40.0279C51.9313 40.0279 51.2358 40.1573 50.6397 40.4161C50.0495 40.6749 49.5878 41.0307 49.2547 41.4836C48.9274 41.9365 48.7638 42.4512 48.7638 43.0276C48.7638 43.5099 48.8777 43.9246 49.1056 44.2716C49.3394 44.6128 49.6375 44.898 49.9998 45.1274C50.3621 45.3509 50.742 45.5362 51.1394 45.6832C51.5368 45.8244 51.9021 45.9391 52.2352 46.0273L54.0586 46.5214C54.5261 46.6449 55.0463 46.8155 55.619 47.0331C56.1976 47.2507 56.7498 47.5478 57.2758 47.9242C57.8076 48.2948 58.2459 48.7712 58.5907 49.3535C58.9355 49.9358 59.108 50.6504 59.108 51.4974C59.108 52.4738 58.8537 53.356 58.3453 54.1442C57.8427 54.9323 57.1063 55.5588 56.1362 56.0234C55.1719 56.4881 54.0001 56.7204 52.6209 56.7204C51.3352 56.7204 50.2219 56.5116 49.281 56.094C48.3459 55.6764 47.6095 55.0941 47.0719 54.3471C46.5401 53.6001 46.2391 52.7326 46.1689 51.7444H48.4131C48.4716 52.4267 48.6995 52.9914 49.0969 53.4384C49.5001 53.8795 50.0086 54.2089 50.6222 54.4265C51.2417 54.6383 51.9079 54.7441 52.6209 54.7441C53.4508 54.7441 54.1959 54.6088 54.8563 54.3383C55.5167 54.0618 56.0398 53.6795 56.4255 53.1913C56.8112 52.6973 57.004 52.1209 57.004 51.4621C57.004 50.8621 56.8375 50.374 56.5044 49.9975C56.1713 49.6211 55.7329 49.3152 55.1894 49.08C54.6459 48.8447 54.0586 48.6388 53.4274 48.4624L51.2183 47.8271C49.8157 47.4213 48.7053 46.8419 47.8871 46.0891C47.0689 45.3362 46.6599 44.351 46.6599 43.1335C46.6599 42.1218 46.9316 41.2396 47.4751 40.4867C48.0245 39.7279 48.7608 39.1398 49.6842 38.7221C50.6134 38.2987 51.6508 38.0869 52.7962 38.0869C53.9534 38.0869 54.982 38.2957 55.882 38.7133C56.782 39.125 57.495 39.6897 58.0209 40.4073C58.5528 41.1249 58.8333 41.9395 58.8625 42.8512H56.7586Z" fill="white"/>
<path d="M38.2558 62.207C38.2293 61.9815 38.1217 61.8065 37.933 61.6819C37.7444 61.5574 37.513 61.4951 37.2389 61.4951C37.0385 61.4951 36.8631 61.5277 36.7128 61.593C36.564 61.6582 36.4476 61.7479 36.3636 61.8621C36.281 61.9764 36.2398 62.1061 36.2398 62.2515C36.2398 62.3731 36.2685 62.4777 36.326 62.5652C36.3849 62.6512 36.4601 62.7231 36.5515 62.781C36.6428 62.8373 36.7386 62.8841 36.8388 62.9211C36.939 62.9567 37.0311 62.9857 37.1151 63.0079L37.5749 63.1325C37.6928 63.1636 37.824 63.2066 37.9684 63.2615C38.1143 63.3164 38.2536 63.3913 38.3862 63.4862C38.5203 63.5797 38.6308 63.6998 38.7178 63.8466C38.8047 63.9935 38.8482 64.1737 38.8482 64.3873C38.8482 64.6335 38.7841 64.8559 38.6559 65.0547C38.5292 65.2534 38.3435 65.4114 38.0988 65.5286C37.8557 65.6457 37.5602 65.7043 37.2124 65.7043C36.8882 65.7043 36.6075 65.6517 36.3702 65.5464C36.1344 65.4411 35.9487 65.2942 35.8131 65.1059C35.679 64.9175 35.6031 64.6987 35.5854 64.4496H36.1513C36.1661 64.6216 36.2236 64.764 36.3238 64.8767C36.4255 64.9879 36.5537 65.071 36.7084 65.1259C36.8646 65.1793 37.0326 65.206 37.2124 65.206C37.4217 65.206 37.6096 65.1719 37.7761 65.1036C37.9426 65.0339 38.0745 64.9375 38.1718 64.8144C38.269 64.6898 38.3177 64.5445 38.3177 64.3784C38.3177 64.2271 38.2757 64.104 38.1917 64.009C38.1077 63.9141 37.9971 63.837 37.8601 63.7777C37.723 63.7183 37.5749 63.6664 37.4158 63.6219L36.8587 63.4618C36.505 63.3594 36.225 63.2133 36.0187 63.0235C35.8124 62.8336 35.7092 62.5852 35.7092 62.2782C35.7092 62.0231 35.7778 61.8006 35.9148 61.6108C36.0533 61.4194 36.239 61.2711 36.4719 61.1658C36.7062 61.059 36.9678 61.0056 37.2566 61.0056C37.5484 61.0056 37.8078 61.0583 38.0347 61.1636C38.2617 61.2674 38.4415 61.4098 38.5741 61.5907C38.7082 61.7717 38.7789 61.9771 38.7863 62.207H38.2558Z" fill="white"/>
<path d="M39.502 61.5574V61.0679H42.8974V61.5574H41.4738V65.6242H40.9256V61.5574H39.502Z" fill="white"/>
<path d="M46.7144 61.0679H47.2626V64.0847C47.2626 64.3962 47.1897 64.6743 47.0438 64.919C46.8994 65.1622 46.6953 65.3543 46.4315 65.4952C46.1677 65.6346 45.8582 65.7043 45.503 65.7043C45.1479 65.7043 44.8384 65.6346 44.5746 65.4952C44.3108 65.3543 44.106 65.1622 43.9601 64.919C43.8157 64.6743 43.7434 64.3962 43.7434 64.0847V61.0679H44.2917V64.0402C44.2917 64.2627 44.3403 64.4607 44.4376 64.6342C44.5348 64.8063 44.6733 64.942 44.8531 65.0413C45.0344 65.1392 45.251 65.1882 45.503 65.1882C45.755 65.1882 45.9717 65.1392 46.1529 65.0413C46.3342 64.942 46.4727 64.8063 46.5685 64.6342C46.6658 64.4607 46.7144 64.2627 46.7144 64.0402V61.0679Z" fill="white"/>
<path d="M49.7545 65.6242H48.3574V61.0679H49.8163C50.2555 61.0679 50.6313 61.1591 50.9437 61.3416C51.2561 61.5225 51.4956 61.7828 51.6621 62.1224C51.8287 62.4606 51.9119 62.8655 51.9119 63.3372C51.9119 63.8118 51.8279 64.2204 51.6599 64.563C51.4919 64.9041 51.2473 65.1667 50.926 65.3506C50.6048 65.533 50.2142 65.6242 49.7545 65.6242ZM48.9056 65.1348H49.7191C50.0934 65.1348 50.4036 65.0621 50.6497 64.9168C50.8958 64.7714 51.0793 64.5645 51.2001 64.296C51.321 64.0276 51.3814 63.708 51.3814 63.3372C51.3814 62.9693 51.3217 62.6527 51.2024 62.3872C51.083 62.1202 50.9047 61.9155 50.6674 61.7732C50.4301 61.6293 50.1347 61.5574 49.781 61.5574H48.9056V65.1348Z" fill="white"/>
<path d="M53.3797 61.0679V65.6242H52.8315V61.0679H53.3797Z" fill="white"/>
<path d="M58.2987 63.3461C58.2987 63.8266 58.2125 64.2419 58.0401 64.5919C57.8677 64.942 57.6312 65.2119 57.3305 65.4018C57.0299 65.5916 56.6865 65.6865 56.3004 65.6865C55.9143 65.6865 55.5709 65.5916 55.2703 65.4018C54.9697 65.2119 54.7331 64.942 54.5607 64.5919C54.3883 64.2419 54.3021 63.8266 54.3021 63.3461C54.3021 62.8655 54.3883 62.4502 54.5607 62.1002C54.7331 61.7502 54.9697 61.4802 55.2703 61.2904C55.5709 61.1005 55.9143 61.0056 56.3004 61.0056C56.6865 61.0056 57.0299 61.1005 57.3305 61.2904C57.6312 61.4802 57.8677 61.7502 58.0401 62.1002C58.2125 62.4502 58.2987 62.8655 58.2987 63.3461ZM57.7682 63.3461C57.7682 62.9515 57.7026 62.6186 57.5715 62.3471C57.4418 62.0757 57.2657 61.8703 57.0432 61.7309C56.8221 61.5915 56.5745 61.5218 56.3004 61.5218C56.0263 61.5218 55.778 61.5915 55.5555 61.7309C55.3344 61.8703 55.1583 62.0757 55.0271 62.3471C54.8975 62.6186 54.8326 62.9515 54.8326 63.3461C54.8326 63.7406 54.8975 64.0736 55.0271 64.345C55.1583 64.6164 55.3344 64.8218 55.5555 64.9612C55.778 65.1007 56.0263 65.1704 56.3004 65.1704C56.5745 65.1704 56.8221 65.1007 57.0432 64.9612C57.2657 64.8218 57.4418 64.6164 57.5715 64.345C57.7026 64.0736 57.7682 63.7406 57.7682 63.3461Z" fill="white"/>
<path d="M38.2558 62.207C38.2293 61.9815 38.1217 61.8065 37.933 61.6819C37.7444 61.5574 37.513 61.4951 37.2389 61.4951C37.0385 61.4951 36.8631 61.5277 36.7128 61.593C36.564 61.6582 36.4476 61.7479 36.3636 61.8621C36.281 61.9764 36.2398 62.1061 36.2398 62.2515C36.2398 62.3731 36.2685 62.4777 36.326 62.5652C36.3849 62.6512 36.4601 62.7231 36.5515 62.781C36.6428 62.8373 36.7386 62.8841 36.8388 62.9211C36.939 62.9567 37.0311 62.9857 37.1151 63.0079L37.5749 63.1325C37.6928 63.1636 37.824 63.2066 37.9684 63.2615C38.1143 63.3164 38.2536 63.3913 38.3862 63.4862C38.5203 63.5797 38.6308 63.6998 38.7178 63.8466C38.8047 63.9935 38.8482 64.1737 38.8482 64.3873C38.8482 64.6335 38.7841 64.8559 38.6559 65.0547C38.5292 65.2534 38.3435 65.4114 38.0988 65.5286C37.8557 65.6457 37.5602 65.7043 37.2124 65.7043C36.8882 65.7043 36.6075 65.6517 36.3702 65.5464C36.1344 65.4411 35.9487 65.2942 35.8131 65.1059C35.679 64.9175 35.6031 64.6987 35.5854 64.4496H36.1513C36.1661 64.6216 36.2236 64.764 36.3238 64.8767C36.4255 64.9879 36.5537 65.071 36.7084 65.1259C36.8646 65.1793 37.0326 65.206 37.2124 65.206C37.4217 65.206 37.6096 65.1719 37.7761 65.1036C37.9426 65.0339 38.0745 64.9375 38.1718 64.8144C38.269 64.6898 38.3177 64.5445 38.3177 64.3784C38.3177 64.2271 38.2757 64.104 38.1917 64.009C38.1077 63.9141 37.9971 63.837 37.8601 63.7777C37.723 63.7183 37.5749 63.6664 37.4158 63.6219L36.8587 63.4618C36.505 63.3594 36.225 63.2133 36.0187 63.0235C35.8124 62.8336 35.7092 62.5852 35.7092 62.2782C35.7092 62.0231 35.7778 61.8006 35.9148 61.6108C36.0533 61.4194 36.239 61.2711 36.4719 61.1658C36.7062 61.059 36.9678 61.0056 37.2566 61.0056C37.5484 61.0056 37.8078 61.0583 38.0347 61.1636C38.2617 61.2674 38.4415 61.4098 38.5741 61.5907C38.7082 61.7717 38.7789 61.9771 38.7863 62.207H38.2558Z" stroke="white" stroke-width="0.3336" stroke-miterlimit="10"/>
<path d="M39.502 61.5574V61.0679H42.8974V61.5574H41.4738V65.6242H40.9256V61.5574H39.502Z" stroke="white" stroke-width="0.3336" stroke-miterlimit="10"/>
<path d="M46.7144 61.0679H47.2626V64.0847C47.2626 64.3962 47.1897 64.6743 47.0438 64.919C46.8994 65.1622 46.6953 65.3543 46.4315 65.4952C46.1677 65.6346 45.8582 65.7043 45.503 65.7043C45.1479 65.7043 44.8384 65.6346 44.5746 65.4952C44.3108 65.3543 44.106 65.1622 43.9601 64.919C43.8157 64.6743 43.7434 64.3962 43.7434 64.0847V61.0679H44.2917V64.0402C44.2917 64.2627 44.3403 64.4607 44.4376 64.6342C44.5348 64.8063 44.6733 64.942 44.8531 65.0413C45.0344 65.1392 45.251 65.1882 45.503 65.1882C45.755 65.1882 45.9717 65.1392 46.1529 65.0413C46.3342 64.942 46.4727 64.8063 46.5685 64.6342C46.6658 64.4607 46.7144 64.2627 46.7144 64.0402V61.0679Z" stroke="white" stroke-width="0.3336" stroke-miterlimit="10"/>
<path d="M49.7545 65.6242H48.3574V61.0679H49.8163C50.2555 61.0679 50.6313 61.1591 50.9437 61.3416C51.2561 61.5225 51.4956 61.7828 51.6621 62.1224C51.8287 62.4606 51.9119 62.8655 51.9119 63.3372C51.9119 63.8118 51.8279 64.2204 51.6599 64.563C51.4919 64.9041 51.2473 65.1667 50.926 65.3506C50.6048 65.533 50.2142 65.6242 49.7545 65.6242ZM48.9056 65.1348H49.7191C50.0934 65.1348 50.4036 65.0621 50.6497 64.9168C50.8958 64.7714 51.0793 64.5645 51.2001 64.296C51.321 64.0276 51.3814 63.708 51.3814 63.3372C51.3814 62.9693 51.3217 62.6527 51.2024 62.3872C51.083 62.1202 50.9047 61.9155 50.6674 61.7732C50.4301 61.6293 50.1347 61.5574 49.781 61.5574H48.9056V65.1348Z" stroke="white" stroke-width="0.3336" stroke-miterlimit="10"/>
<path d="M53.3797 61.0679V65.6242H52.8315V61.0679H53.3797Z" stroke="white" stroke-width="0.3336" stroke-miterlimit="10"/>
<path d="M58.2987 63.3461C58.2987 63.8266 58.2125 64.2419 58.0401 64.5919C57.8677 64.942 57.6312 65.2119 57.3305 65.4018C57.0299 65.5916 56.6865 65.6865 56.3004 65.6865C55.9143 65.6865 55.5709 65.5916 55.2703 65.4018C54.9697 65.2119 54.7331 64.942 54.5607 64.5919C54.3883 64.2419 54.3021 63.8266 54.3021 63.3461C54.3021 62.8655 54.3883 62.4502 54.5607 62.1002C54.7331 61.7502 54.9697 61.4802 55.2703 61.2904C55.5709 61.1005 55.9143 61.0056 56.3004 61.0056C56.6865 61.0056 57.0299 61.1005 57.3305 61.2904C57.6312 61.4802 57.8677 61.7502 58.0401 62.1002C58.2125 62.4502 58.2987 62.8655 58.2987 63.3461ZM57.7682 63.3461C57.7682 62.9515 57.7026 62.6186 57.5715 62.3471C57.4418 62.0757 57.2657 61.8703 57.0432 61.7309C56.8221 61.5915 56.5745 61.5218 56.3004 61.5218C56.0263 61.5218 55.778 61.5915 55.5555 61.7309C55.3344 61.8703 55.1583 62.0757 55.0271 62.3471C54.8975 62.6186 54.8326 62.9515 54.8326 63.3461C54.8326 63.7406 54.8975 64.0736 55.0271 64.345C55.1583 64.6164 55.3344 64.8218 55.5555 64.9612C55.778 65.1007 56.0263 65.1704 56.3004 65.1704C56.5745 65.1704 56.8221 65.1007 57.0432 64.9612C57.2657 64.8218 57.4418 64.6164 57.5715 64.345C57.7026 64.0736 57.7682 63.7406 57.7682 63.3461Z" stroke="white" stroke-width="0.3336" stroke-miterlimit="10"/>
<path d="M23.657 67.4469C32.9424 80.0021 51.3289 82.1932 63.2989 72.2297C64.9498 70.8828 66.443 69.3396 67.7573 67.6512C66.4804 69.3665 65.0139 70.9446 63.3844 72.3319C51.4624 82.5346 32.742 80.3193 23.657 67.4469Z" fill="white"/>
<path d="M23.7612 23.2305C33.0066 10.4898 51.7083 8.36862 63.5447 18.7004C65.1609 20.1038 66.6087 21.7008 67.8615 23.4349C66.574 21.7277 65.0968 20.1657 63.4593 18.8026C51.5667 8.70468 33.1962 10.8151 23.7612 23.2305Z" fill="white"/>
</svg>
