<svg width="20" height="20" viewBox="0 0 20 20" fill="none" xmlns="http://www.w3.org/2000/svg">
<g clip-path="url(#clip0_2037_143)">
<path d="M9.99995 19.2858C15.1284 19.2858 19.2857 15.1285 19.2857 10.0001C19.2857 4.87171 15.1284 0.714355 9.99995 0.714355C4.87159 0.714355 0.714233 4.87171 0.714233 10.0001C0.714233 15.1285 4.87159 19.2858 9.99995 19.2858Z" stroke="white" stroke-linecap="round" stroke-linejoin="round"/>
<path d="M7.85706 14.2859H12.1428" stroke="white" stroke-linecap="round" stroke-linejoin="round"/>
<path d="M9.99998 14.2859V9.28589H8.57141" stroke="white" stroke-linecap="round" stroke-linejoin="round"/>
<path d="M9.99997 6.07146C9.80272 6.07146 9.64282 5.91156 9.64282 5.71432C9.64282 5.51708 9.80272 5.35718 9.99997 5.35718" stroke="white" stroke-linecap="round" stroke-linejoin="round"/>
<path d="M10 6.07146C10.1972 6.07146 10.3571 5.91156 10.3571 5.71432C10.3571 5.51708 10.1972 5.35718 10 5.35718" stroke="white" stroke-linecap="round" stroke-linejoin="round"/>
</g>
<defs>
<clipPath id="clip0_2037_143">
<rect width="20" height="20" fill="white"/>
</clipPath>
</defs>
</svg>
