<svg width="25" height="25" viewBox="0 0 25 25" fill="none" xmlns="http://www.w3.org/2000/svg">
<g clip-path="url(#clip0_2142_30)">
<path d="M18.4986 14.3652C18.4499 14.3419 16.6274 13.4444 16.3035 13.3278C16.1713 13.2803 16.0296 13.234 15.879 13.234C15.6329 13.234 15.4261 13.3566 15.2651 13.5976C15.083 13.8682 14.5319 14.5124 14.3616 14.7049C14.3394 14.7303 14.309 14.7606 14.2908 14.7606C14.2745 14.7606 13.9925 14.6445 13.9071 14.6074C11.952 13.7581 10.4679 11.7158 10.2645 11.3714C10.2354 11.3219 10.2342 11.2994 10.2339 11.2994C10.2411 11.2732 10.3068 11.2073 10.3408 11.1733C10.44 11.0751 10.5476 10.9456 10.6516 10.8204C10.7009 10.761 10.7503 10.7016 10.7987 10.6456C10.9497 10.47 11.0169 10.3336 11.0948 10.1756L11.1356 10.0936C11.3259 9.71557 11.1634 9.39658 11.1109 9.29358C11.0678 9.20738 10.2982 7.35007 10.2164 7.15494C10.0197 6.68408 9.75967 6.46484 9.39839 6.46484C9.36486 6.46484 9.39838 6.46484 9.2578 6.47077C9.08662 6.47799 8.15439 6.60072 7.74222 6.86054C7.30512 7.13611 6.56567 8.01452 6.56567 9.55932C6.56567 10.9497 7.44798 12.2624 7.82679 12.7617C7.83621 12.7743 7.8535 12.7998 7.87858 12.8365C9.32931 14.9552 11.1378 16.5253 12.9712 17.2577C14.7362 17.9627 15.572 18.0442 16.0472 18.0442H16.0472C16.2469 18.0442 16.4067 18.0286 16.5477 18.0147L16.6372 18.0062C17.2469 17.9521 18.5869 17.2578 18.8916 16.4108C19.1317 15.7437 19.1951 15.0148 19.0353 14.7502C18.9259 14.5704 18.7373 14.4799 18.4986 14.3652Z" fill="white"/>
<path d="M12.7219 0C5.95112 0 0.442676 5.46705 0.442676 12.1869C0.442676 14.3604 1.02433 16.4879 2.1262 18.3499L0.0171889 24.5711C-0.0220968 24.6871 0.007124 24.8153 0.0929195 24.9027C0.154851 24.9659 0.238861 25 0.324656 25C0.35753 25 0.390647 24.995 0.422952 24.9847L6.90997 22.9234C8.68513 23.8718 10.6915 24.3725 12.722 24.3725C19.4921 24.3726 25 18.9061 25 12.1869C25 5.46705 19.4921 0 12.7219 0ZM12.7219 21.8339C10.8113 21.8339 8.9607 21.2822 7.36995 20.2384C7.31646 20.2032 7.25436 20.1852 7.19186 20.1852C7.15883 20.1852 7.12571 20.1903 7.09349 20.2005L3.84389 21.2334L4.89292 18.1386C4.92685 18.0384 4.90988 17.9279 4.84738 17.8425C3.63602 16.1873 2.99568 14.2317 2.99568 12.1869C2.99568 6.86688 7.35883 2.53864 12.7218 2.53864C18.0842 2.53864 22.4468 6.86688 22.4468 12.1869C22.4469 17.5063 18.0843 21.8339 12.7219 21.8339Z" fill="white"/>
</g>
<defs>
<clipPath id="clip0_2142_30">
<rect width="25" height="25" fill="white"/>
</clipPath>
</defs>
</svg>
